<svg id="Capa_1" enable-background="new 0 0 512 512" height="512" viewBox="0 0 512 512" width="512" xmlns="http://www.w3.org/2000/svg"><g><g><g fill="#bed8fb"><path d="m71.352 12.566c-4.276 0-7.742 3.466-7.742 7.742v39.192l-31.15-32.321c-2.969-3.08-7.869-3.168-10.947-.203-3.08 2.968-3.169 7.868-.203 10.947l31.828 33.024h-40.168c-4.276 0-7.742 3.466-7.742 7.742s3.466 7.742 7.742 7.742h58.382c4.157.074 7.815-3.588 7.742-7.742v-58.381c0-4.277-3.466-7.742-7.742-7.742z"/><path d="m499.023 70.948h-40.168l31.827-33.024c2.967-3.079 2.876-7.98-.203-10.947-3.078-2.966-7.98-2.875-10.947.203l-31.148 32.32v-39.192c0-4.276-3.466-7.742-7.742-7.742s-7.742 3.466-7.742 7.742v58.382c-.073 4.155 3.585 7.816 7.742 7.742h58.381c4.276 0 7.742-3.466 7.742-7.742s-3.466-7.742-7.742-7.742z"/></g><path d="m256 502.71c144.49 0 255.815-117.785 255.815-255.999-4.893-137.08-117.542-246.711-255.815-246.711s-250.922 109.631-255.815 246.71c0 136.356 107.83 256 255.815 256z" fill="#a6aec4"/><path d="m256 493.419c-138.273 0-250.922-109.631-255.814-246.71-.111 3.086-.186 6.179-.186 9.291 0 111.665 71.494 206.631 171.204 241.622h169.591c99.711-34.991 171.205-129.957 171.205-241.622 0-3.112-.075-6.205-.185-9.29-4.893 137.079-117.542 246.709-255.815 246.709z" fill="#959db0"/><path d="m171.211 479.024c26.538 9.313 84.789 28.649 84.789 28.649s58.25-19.336 84.789-28.649v-27.614h-169.578z" fill="#eceaec"/><path d="m256 459.683c122.315 0 212.76-101.842 212.76-212.972-3.584-83.489-55.226-154.525-127.965-186.134h-169.59c-72.738 31.609-124.38 102.645-127.965 186.133 0 111.132 82.976 212.973 212.76 212.973z" fill="#454d58"/><path d="m171.211 60.59v44.664l84.786 9.29 84.793-9.29v-44.664c-25.984-11.291-54.653-17.564-84.79-17.564s-58.805 6.273-84.789 17.564z" fill="#df667c"/><path d="m171.211 123.835 84.789 9.29 84.789-9.29v-18.581h-169.578z" fill="#dc4857"/><path d="m256 450.393c-114.508 0-207.895-90.373-212.76-203.683-.132 3.081-.214 6.176-.214 9.29 0 117.622 95.351 212.974 212.973 212.974s212.975-95.352 212.975-212.974c0-3.114-.081-6.209-.213-9.29-4.866 113.31-98.253 203.683-212.761 203.683z" fill="#3c434c"/><path d="m171.211 239.087c0 22.804 12.423 50.581 41.29 50.581h86.998c31.827 0 41.29-27.777 41.29-50.581v-115.252h-169.578z" fill="#eceaec"/><path d="m255.997 209.195c12.619 0 27.194-17.401 27.194-28.737-3.863-11.31-14.575-19.447-27.194-19.447s-23.33 8.137-27.193 19.447c-.001 11.455 14.574 28.737 27.193 28.737z" fill="#454d58"/><path d="m299.499 280.377h-86.998c-22.804 0-41.29-18.486-41.29-41.29v18.581c0 22.804 18.486 41.29 41.29 41.29h86.998c22.804 0 41.29-18.486 41.29-41.29v-18.581c0 22.804-18.486 41.29-41.29 41.29z" fill="#dad8db"/><path d="m255.997 199.904c-12.619 0-23.33-8.137-27.193-19.447-.996 2.915-1.544 6.038-1.544 9.29 0 15.871 12.866 28.738 28.737 28.738s28.737-12.866 28.737-28.738c0-3.252-.548-6.375-1.544-9.29-3.863 11.31-14.575 19.447-27.193 19.447z" fill="#3c434c"/><path d="m256 493.419c-29.721 0-58.251-5.082-84.789-14.396v18.581c26.538 9.314 55.068 14.396 84.789 14.396s58.25-5.082 84.789-14.396v-18.581c-26.539 9.314-55.068 14.396-84.789 14.396z" fill="#dad8db"/></g><g fill="#df667c"><path d="m220.475 260.64h19.566c4.285 0 7.757-3.473 7.757-7.757 0-4.285-3.473-7.757-7.757-7.757h-19.566c-4.285 0-7.757 3.472-7.757 7.757s3.472 7.757 7.757 7.757z"/><path d="m271.953 245.126c-4.285 0-7.757 3.472-7.757 7.757s3.473 7.757 7.757 7.757h19.565c4.285 0 7.757-3.473 7.757-7.757 0-4.285-3.473-7.757-7.757-7.757z"/></g></g></svg>